<svg width="1440" height="192" viewBox="0 0 1440 192" fill="none" xmlns="http://www.w3.org/2000/svg">
<path d="M1439.61 118.839L1439.02 45.5607L1434.52 44.6182C1431.59 43.9113 1430.41 44.0291 1431.2 44.736C1431.78 45.4429 1431.59 45.9141 1430.61 45.9141C1429.44 45.9141 1428.26 45.2072 1427.68 44.2647C1426.7 42.9688 1424.15 42.3798 1413 41.0838C1412.22 40.966 1409.48 40.377 1406.74 39.7879C1404 39.1989 1396.18 37.9029 1389.13 37.0783C1382.09 36.1358 1370.35 34.6042 1363.11 33.6617C1332 29.3027 1266.85 28.9493 1236.52 32.8371C1231.63 33.5439 1223.61 34.3686 1218.72 34.722C1213.63 35.0755 1206.39 36.3714 1202.48 37.5495C1198.76 38.7276 1196.02 39.1989 1196.81 38.492C1197.59 37.7851 1196.22 37.5495 1193.28 37.9029C1188.2 38.6098 1160.41 42.1441 1152.39 43.0866C1149.65 43.4401 1140.85 44.5004 1132.83 45.5607C1104.46 49.095 1094.48 49.6841 1064.35 49.8019C1033.83 49.9197 1009.37 49.095 1005.65 47.6813C1004.68 47.3278 1003.7 47.6813 1003.7 48.506C1003.7 49.5663 1003.11 49.5663 1002.13 48.7416C1001.35 48.0347 995.284 46.8566 988.632 46.0319C981.784 45.2072 968.675 43.4401 959.284 41.9085C949.697 40.4948 940.11 39.3167 937.762 39.4345C935.414 39.5523 933.849 39.1989 934.241 38.8454C934.828 38.3742 930.915 37.4317 925.828 36.7248C914.284 35.1933 888.067 30.9521 876.523 28.7137C871.632 27.889 865.958 26.9465 863.806 26.7109C861.654 26.5931 858.915 26.1218 857.936 25.7684C853.241 24.0012 835.436 21.0559 833.675 21.645C832.697 22.1162 831.523 21.8806 831.132 21.1737C830.936 20.5847 828.197 19.8778 825.067 19.76C822.132 19.6422 819.784 19.171 819.784 18.6997C819.784 18.3463 818.61 17.9928 817.241 17.875C816.067 17.875 806.675 16.4613 796.697 14.9298C786.915 13.2804 778.697 12.3379 778.697 12.8092C778.697 13.1626 777.915 12.8092 776.936 11.9845C776.154 11.1598 771.654 10.3351 767.349 10.2173C762.849 10.0995 759.132 9.62825 759.132 9.03919C759.132 8.56795 758.349 8.33232 757.371 8.80357C756.393 9.157 755.023 8.92138 754.241 8.21451C752.48 6.56516 746.545 6.18739 745.001 7.91022C743.501 7.91022 743.501 7.91022 742.501 7.91022C739.371 5.55399 729.784 4.79799 713.741 3.50206C704.741 2.91301 692.219 1.7349 685.762 1.14584C672.067 -0.150084 607.893 -0.503517 609.067 0.910217C609.654 1.38146 605.154 1.85271 599.088 1.85271C578.154 2.20614 549.001 5.03361 544.501 7.27202C543.132 7.86108 541.175 8.0967 540.001 7.62546C538.828 7.27202 534.719 7.50765 530.61 8.33232C526.697 9.157 522.197 9.98168 520.632 10.0995C511.241 11.042 491.871 14.6941 490.697 15.7544C489.915 16.4613 488.741 16.5791 487.958 16.2257C487.175 15.7544 484.828 15.9901 482.48 16.6969C480.328 17.5216 480.241 18.1646 477.501 18.1646C473.784 18.2824 472.893 18.9102 470.414 18.9102C468.393 18.9102 469.893 18.9102 467.522 18.9102C464.393 19.4102 464.48 19.76 454.893 21.645C446.871 23.1765 446.501 23.4102 444.501 24.4102C443.001 24.4102 443.98 24.4102 443.001 24.4102C441.828 24.4102 442.501 24.4102 441.501 24.4102C439.501 24.4102 436.501 25.1793 429.067 27.4177C426.132 28.3602 421.241 29.4205 418.501 29.774C415.762 30.2452 410.088 31.4233 405.784 32.6014C401.675 33.6617 397.762 34.6042 397.175 34.722C393.654 35.0755 379.958 38.1386 376.632 39.1989C374.48 39.9057 371.545 40.6126 370.175 40.7304C368.61 40.8482 366.067 41.4373 364.306 41.9085C362.545 42.3798 360.001 42.851 358.828 42.9688C357.849 43.2044 352.958 44.3826 348.262 45.7963C343.567 47.0922 338.48 48.2703 337.11 48.2703C335.545 48.2703 334.958 48.7416 335.545 49.4484C336.132 50.1553 335.741 50.6266 334.762 50.6266C333.588 50.6266 332.61 50.0375 332.61 49.2128C332.61 48.1525 332.023 48.1525 330.262 49.2128C328.893 50.0375 325.958 50.6266 323.415 50.6266C320.871 50.6266 318.915 51.2156 318.915 51.9225C318.915 52.5115 318.132 52.865 317.154 52.5115C314.806 51.569 308.936 52.9828 310.11 54.1609C310.502 54.6321 308.936 54.7499 306.588 54.5143C301.501 53.9253 278.023 57.224 274.306 59.109C273.132 59.8158 271.958 59.8158 271.958 59.2268C271.958 58.6377 266.871 58.6377 259.632 59.109C233.806 61.1118 195.262 61.4652 170.806 60.1693C157.11 59.3446 140.871 58.4021 135.001 58.1665C120.328 57.4596 107.61 56.6349 101.154 55.9281C97.632 55.4568 95.8711 55.8102 95.8711 56.7527C95.8711 57.9309 95.4797 57.9309 94.1102 56.7527C92.1537 54.7499 57.5233 52.9828 54.3928 54.7499C52.8276 55.5746 52.632 55.4568 53.6102 54.5143C54.5885 53.454 53.6102 52.9828 50.4797 52.865C47.9363 52.865 44.4146 52.6293 42.2623 52.3937C40.3058 52.1581 29.9363 51.569 19.3711 51.0978L0.00146484 50.2731V121.195V192L720.001 192L1440 192L1439.61 118.839Z" fill="#8B0000"/>
</svg>
